{
  "accessors": [
    {
      "bufferView": 0,
      "componentType": 5126,
      "count": 70787,
      "max": [
        0.0810220018029213,
        0.0681990012526512,
        0.0563409999012947
      ],
      "min": [
        -0.0811230018734932,
        -0.0682699978351593,
        -0.0560429990291595
      ],
      "type": "VEC3"
    },
    {
      "bufferView": 1,
      "componentType": 5126,
      "count": 70787,
      "type": "VEC3"
    },
    {
      "bufferView": 2,
      "componentType": 5126,
      "count": 70787,
      "type": "VEC2"
    },
    {
      "bufferView": 3,
      "componentType": 5125,
      "count": 299982,
      "type": "SCALAR"
    }
  ],
  "asset": {
    "generator": "MeshSmith mesh conversion tool",
    "version": "2.0"
  },
  "bufferViews": [
    {
      "buffer": 0,
      "byteLength": 849444,
      "target": 34962
    },
    {
      "buffer": 0,
      "byteLength": 849444,
      "byteOffset": 849444,
      "target": 34962
    },
    {
      "buffer": 0,
      "byteLength": 566296,
      "byteOffset": 1698888,
      "target": 34962
    },
    {
      "buffer": 0,
      "byteLength": 1199928,
      "byteOffset": 2265184,
      "target": 34963
    }
  ],
  "buffers": [
    {
      "byteLength": 3465112,
      "uri": "usnm_1128565-100k-2048.bin"
    }
  ],
  "images": [
    {
      "uri": "usnm_1128565-100k-2048-diffuse.jpg"
    },
    {
      "uri": "usnm_1128565-100k-2048-occlusion.jpg"
    },
    {
      "uri": "usnm_1128565-100k-2048-normals.jpg"
    }
  ],
  "materials": [
    {
      "name": "default",
      "normalTexture": {
        "index": 2
      },
      "occlusionTexture": {
        "index": 1
      },
      "pbrMetallicRoughness": {
        "baseColorTexture": {
          "index": 0
        },
        "metallicFactor": 0.100000001490116,
        "roughnessFactor": 0.800000011920929
      }
    }
  ],
  "meshes": [
    {
      "primitives": [
        {
          "attributes": {
            "NORMAL": 1,
            "POSITION": 0,
            "TEXCOORD_0": 2
          },
          "indices": 3,
          "material": 0,
          "mode": 4
        }
      ]
    }
  ],
  "nodes": [
    {
      "mesh": 0
    }
  ],
  "scene": 0,
  "scenes": [
    {
      "nodes": [
        0
      ]
    }
  ],
  "textures": [
    {
      "source": 0
    },
    {
      "source": 1
    },
    {
      "source": 2
    }
  ]
}