{
  "accessors": [
    {
      "bufferView": 0,
      "componentType": 5126,
      "count": 69324,
      "max": [
        0.0528319999575615,
        0.0378010012209415,
        0.064350001513958
      ],
      "min": [
        -0.0529740005731583,
        -0.0378209985792637,
        -0.0645639970898628
      ],
      "type": "VEC3"
    },
    {
      "bufferView": 1,
      "componentType": 5126,
      "count": 69324,
      "type": "VEC3"
    },
    {
      "bufferView": 2,
      "componentType": 5126,
      "count": 69324,
      "type": "VEC2"
    },
    {
      "bufferView": 3,
      "componentType": 5125,
      "count": 299988,
      "type": "SCALAR"
    }
  ],
  "asset": {
    "generator": "MeshSmith mesh conversion tool",
    "version": "2.0"
  },
  "bufferViews": [
    {
      "buffer": 0,
      "byteLength": 831888,
      "target": 34962
    },
    {
      "buffer": 0,
      "byteLength": 831888,
      "byteOffset": 831888,
      "target": 34962
    },
    {
      "buffer": 0,
      "byteLength": 554592,
      "byteOffset": 1663776,
      "target": 34962
    },
    {
      "buffer": 0,
      "byteLength": 1199952,
      "byteOffset": 2218368,
      "target": 34963
    }
  ],
  "buffers": [
    {
      "byteLength": 3418320,
      "uri": "usnm_44359-100k-2048.bin"
    }
  ],
  "images": [
    {
      "uri": "usnm_44359-100k-2048-diffuse.jpg"
    },
    {
      "uri": "usnm_44359-100k-2048-occlusion.jpg"
    },
    {
      "uri": "usnm_44359-100k-2048-normals.jpg"
    }
  ],
  "materials": [
    {
      "name": "default",
      "normalTexture": {
        "index": 2
      },
      "occlusionTexture": {
        "index": 1
      },
      "pbrMetallicRoughness": {
        "baseColorTexture": {
          "index": 0
        },
        "metallicFactor": 0.100000001490116,
        "roughnessFactor": 0.800000011920929
      }
    }
  ],
  "meshes": [
    {
      "primitives": [
        {
          "attributes": {
            "NORMAL": 1,
            "POSITION": 0,
            "TEXCOORD_0": 2
          },
          "indices": 3,
          "material": 0,
          "mode": 4
        }
      ]
    }
  ],
  "nodes": [
    {
      "mesh": 0
    }
  ],
  "scene": 0,
  "scenes": [
    {
      "nodes": [
        0
      ]
    }
  ],
  "textures": [
    {
      "source": 0
    },
    {
      "source": 1
    },
    {
      "source": 2
    }
  ]
}